<svg width="847" height="208" viewBox="0 0 847 208" fill="none" xmlns="http://www.w3.org/2000/svg">
    <path
        d="M32.7421 32.4309H45.7089C60.058 32.4309 73.1109 40.4649 79.1918 53.0399L122.664 142.934C122.925 143.474 123.485 143.818 124.101 143.818C124.977 143.818 125.687 143.131 125.687 142.284V34.4747H157.373V142.284C157.373 160.063 142.477 174.476 124.101 174.476C111.186 174.476 99.4374 167.244 93.9641 155.926L50.4922 66.0322C49.6234 64.2357 47.7586 63.088 45.7089 63.088H35.9107C33.5773 63.088 31.6859 64.918 31.6859 67.1757V139.731C31.6859 142.553 34.0502 144.84 36.9669 144.84H57.0346V175.498H36.9669C16.5505 175.498 0 159.484 0 139.731V64.1099H28.5173C30.8507 64.1099 32.7421 62.2799 32.7421 60.0223V32.4309Z"
        fill="black" />
    <path
        d="M32.7421 32.4309H45.7089C60.058 32.4309 73.1109 40.4649 79.1918 53.0399L122.664 142.934C122.925 143.474 123.485 143.818 124.101 143.818C124.977 143.818 125.687 143.131 125.687 142.284V34.4747H157.373V142.284C157.373 160.063 142.477 174.476 124.101 174.476C111.186 174.476 99.4374 167.244 93.9641 155.926L50.4922 66.0322C49.6234 64.2357 47.7586 63.088 45.7089 63.088H35.9107C33.5773 63.088 31.6859 64.918 31.6859 67.1757V139.731C31.6859 142.553 34.0502 144.84 36.9669 144.84H57.0346V175.498H36.9669C16.5505 175.498 0 159.484 0 139.731V64.1099H28.5173C30.8507 64.1099 32.7421 62.2799 32.7421 60.0223V32.4309Z"
        fill="black" />
    <path
        d="M809.088 154.645C800.721 154.645 793.52 152.95 787.483 149.562C781.482 146.137 776.858 141.301 773.61 135.053C770.362 128.769 768.738 121.338 768.738 112.76C768.738 104.394 770.362 97.051 773.61 90.7321C776.858 84.4132 781.429 79.4886 787.324 75.9585C793.255 72.4284 800.209 70.6633 808.187 70.6633C813.553 70.6633 818.548 71.5282 823.173 73.258C827.833 74.9524 831.892 77.5118 835.352 80.936C838.847 84.3602 841.565 88.667 843.506 93.8562C845.448 99.0102 846.419 105.047 846.419 111.966V118.161H777.74V104.182H825.185C825.185 100.934 824.479 98.0571 823.067 95.5507C821.655 93.0443 819.696 91.0851 817.189 89.673C814.718 88.2257 811.841 87.502 808.558 87.502C805.134 87.502 802.098 88.2963 799.45 89.8848C796.838 91.4381 794.791 93.5385 793.308 96.1861C791.825 98.7984 791.066 101.711 791.031 104.923V118.214C791.031 122.238 791.772 125.716 793.255 128.646C794.773 131.576 796.909 133.835 799.662 135.423C802.416 137.012 805.681 137.806 809.458 137.806C811.965 137.806 814.259 137.453 816.342 136.747C818.425 136.041 820.207 134.982 821.69 133.57C823.173 132.158 824.302 130.428 825.079 128.381L845.942 129.758C844.883 134.77 842.712 139.148 839.429 142.89C836.181 146.596 831.98 149.491 826.826 151.574C821.708 153.621 815.795 154.645 809.088 154.645Z"
        fill="black" />
    <path
        d="M809.088 154.645C800.721 154.645 793.52 152.95 787.483 149.562C781.482 146.137 776.858 141.301 773.61 135.053C770.362 128.769 768.738 121.338 768.738 112.76C768.738 104.394 770.362 97.051 773.61 90.7321C776.858 84.4132 781.429 79.4886 787.324 75.9585C793.255 72.4284 800.209 70.6633 808.187 70.6633C813.553 70.6633 818.548 71.5282 823.173 73.258C827.833 74.9524 831.892 77.5118 835.352 80.936C838.847 84.3602 841.565 88.667 843.506 93.8562C845.448 99.0102 846.419 105.047 846.419 111.966V118.161H777.74V104.182H825.185C825.185 100.934 824.479 98.0571 823.067 95.5507C821.655 93.0443 819.696 91.0851 817.189 89.673C814.718 88.2257 811.841 87.502 808.558 87.502C805.134 87.502 802.098 88.2963 799.45 89.8848C796.838 91.4381 794.791 93.5385 793.308 96.1861C791.825 98.7984 791.066 101.711 791.031 104.923V118.214C791.031 122.238 791.772 125.716 793.255 128.646C794.773 131.576 796.909 133.835 799.662 135.423C802.416 137.012 805.681 137.806 809.458 137.806C811.965 137.806 814.259 137.453 816.342 136.747C818.425 136.041 820.207 134.982 821.69 133.57C823.173 132.158 824.302 130.428 825.079 128.381L845.942 129.758C844.883 134.77 842.712 139.148 839.429 142.89C836.181 146.596 831.98 149.491 826.826 151.574C821.708 153.621 815.795 154.645 809.088 154.645Z"
        fill="black" />
    <path
        d="M763.748 71.7177V88.6623H714.768V71.7177H763.748ZM725.887 52.2314H748.445V128.058C748.445 130.141 748.763 131.765 749.398 132.93C750.034 134.06 750.916 134.854 752.046 135.313C753.211 135.772 754.552 136.001 756.07 136.001C757.129 136.001 758.188 135.913 759.247 135.737C760.306 135.525 761.118 135.366 761.683 135.26L765.231 152.046C764.101 152.399 762.513 152.805 760.465 153.264C758.418 153.758 755.929 154.058 752.999 154.164C747.562 154.376 742.797 153.652 738.702 151.993C734.642 150.334 731.483 147.757 729.223 144.262C726.964 140.767 725.852 136.354 725.887 131.024V52.2314Z"
        fill="black" />
    <path
        d="M763.748 71.7177V88.6623H714.768V71.7177H763.748ZM725.887 52.2314H748.445V128.058C748.445 130.141 748.763 131.765 749.398 132.93C750.034 134.06 750.916 134.854 752.046 135.313C753.211 135.772 754.552 136.001 756.07 136.001C757.129 136.001 758.188 135.913 759.247 135.737C760.306 135.525 761.118 135.366 761.683 135.26L765.231 152.046C764.101 152.399 762.513 152.805 760.465 153.264C758.418 153.758 755.929 154.058 752.999 154.164C747.562 154.376 742.797 153.652 738.702 151.993C734.642 150.334 731.483 147.757 729.223 144.262C726.964 140.767 725.852 136.354 725.887 131.024V52.2314Z"
        fill="black" />
    <path
        d="M644.467 183.556C641.607 183.556 638.924 183.327 636.418 182.868C633.947 182.444 631.899 181.897 630.275 181.226L635.359 164.387C638.006 165.199 640.389 165.641 642.507 165.711C644.661 165.782 646.514 165.288 648.067 164.229C649.656 163.17 650.944 161.369 651.933 158.827L653.257 155.386L624.08 71.7217H647.803L664.641 131.451H665.488L682.486 71.7217H706.367L674.755 161.846C673.237 166.223 671.172 170.036 668.56 173.283C665.983 176.566 662.717 179.09 658.764 180.855C654.81 182.656 650.044 183.556 644.467 183.556Z"
        fill="black" />
    <path
        d="M644.467 183.556C641.607 183.556 638.924 183.327 636.418 182.868C633.947 182.444 631.899 181.897 630.275 181.226L635.359 164.387C638.006 165.199 640.389 165.641 642.507 165.711C644.661 165.782 646.514 165.288 648.067 164.229C649.656 163.17 650.944 161.369 651.933 158.827L653.257 155.386L624.08 71.7217H647.803L664.641 131.451H665.488L682.486 71.7217H706.367L674.755 161.846C673.237 166.223 671.172 170.036 668.56 173.283C665.983 176.566 662.717 179.09 658.764 180.855C654.81 182.656 650.044 183.556 644.467 183.556Z"
        fill="black" />
    <path
        d="M613.511 44.6101V153.055H593.707L546.527 84.8006H545.733V153.055H522.805V44.6101H542.926L589.736 112.812H590.689V44.6101H613.511Z"
        fill="black" />
    <path
        d="M613.511 44.6101V153.055H593.707L546.527 84.8006H545.733V153.055H522.805V44.6101H542.926L589.736 112.812H590.689V44.6101H613.511Z"
        fill="black" />
    <path
        d="M475.875 154.645C467.508 154.645 460.307 152.95 454.27 149.562C448.269 146.137 443.645 141.301 440.397 135.053C437.149 128.769 435.525 121.338 435.525 112.76C435.525 104.394 437.149 97.051 440.397 90.7321C443.645 84.4132 448.216 79.4886 454.111 75.9585C460.042 72.4284 466.996 70.6633 474.975 70.6633C480.34 70.6633 485.335 71.5282 489.96 73.258C494.62 74.9524 498.679 77.5118 502.139 80.936C505.634 84.3602 508.352 88.667 510.293 93.8562C512.235 99.0102 513.206 105.047 513.206 111.966V118.161H444.527V104.182H491.972C491.972 100.934 491.266 98.0571 489.854 95.5507C488.442 93.0443 486.483 91.0851 483.976 89.673C481.505 88.2257 478.628 87.502 475.345 87.502C471.921 87.502 468.885 88.2963 466.237 89.8848C463.625 91.4381 461.578 93.5385 460.095 96.1861C458.612 98.7984 457.853 101.711 457.818 104.923V118.214C457.818 122.238 458.559 125.716 460.042 128.646C461.56 131.576 463.696 133.835 466.449 135.423C469.203 137.012 472.468 137.806 476.245 137.806C478.752 137.806 481.046 137.453 483.129 136.747C485.212 136.041 486.995 134.982 488.477 133.57C489.96 132.158 491.09 130.428 491.866 128.381L512.729 129.758C511.67 134.77 509.499 139.148 506.216 142.89C502.968 146.596 498.768 149.491 493.614 151.574C488.495 153.621 482.582 154.645 475.875 154.645Z"
        fill="black" />
    <path
        d="M475.875 154.645C467.508 154.645 460.307 152.95 454.27 149.562C448.269 146.137 443.645 141.301 440.397 135.053C437.149 128.769 435.525 121.338 435.525 112.76C435.525 104.394 437.149 97.051 440.397 90.7321C443.645 84.4132 448.216 79.4886 454.111 75.9585C460.042 72.4284 466.996 70.6633 474.975 70.6633C480.34 70.6633 485.335 71.5282 489.96 73.258C494.62 74.9524 498.679 77.5118 502.139 80.936C505.634 84.3602 508.352 88.667 510.293 93.8562C512.235 99.0102 513.206 105.047 513.206 111.966V118.161H444.527V104.182H491.972C491.972 100.934 491.266 98.0571 489.854 95.5507C488.442 93.0443 486.483 91.0851 483.976 89.673C481.505 88.2257 478.628 87.502 475.345 87.502C471.921 87.502 468.885 88.2963 466.237 89.8848C463.625 91.4381 461.578 93.5385 460.095 96.1861C458.612 98.7984 457.853 101.711 457.818 104.923V118.214C457.818 122.238 458.559 125.716 460.042 128.646C461.56 131.576 463.696 133.835 466.449 135.423C469.203 137.012 472.468 137.806 476.245 137.806C478.752 137.806 481.046 137.453 483.129 136.747C485.212 136.041 486.995 134.982 488.477 133.57C489.96 132.158 491.09 130.428 491.866 128.381L512.729 129.758C511.67 134.77 509.499 139.148 506.216 142.89C502.968 146.596 498.768 149.491 493.614 151.574C488.495 153.621 482.582 154.645 475.875 154.645Z"
        fill="black" />
    <path
        d="M430.545 71.7177V88.6623H381.564V71.7177H430.545ZM392.684 52.2314H415.242V128.058C415.242 130.141 415.56 131.765 416.195 132.93C416.83 134.06 417.713 134.854 418.843 135.313C420.008 135.772 421.349 136.001 422.867 136.001C423.926 136.001 424.985 135.913 426.044 135.737C427.103 135.525 427.915 135.366 428.48 135.26L432.028 152.046C430.898 152.399 429.309 152.805 427.262 153.264C425.214 153.758 422.726 154.058 419.796 154.164C414.359 154.376 409.594 153.652 405.499 151.993C401.439 150.334 398.28 147.757 396.02 144.262C393.761 140.767 392.649 136.354 392.684 131.024V52.2314Z"
        fill="black" />
    <path
        d="M430.545 71.7177V88.6623H381.564V71.7177H430.545ZM392.684 52.2314H415.242V128.058C415.242 130.141 415.56 131.765 416.195 132.93C416.83 134.06 417.713 134.854 418.843 135.313C420.008 135.772 421.349 136.001 422.867 136.001C423.926 136.001 424.985 135.913 426.044 135.737C427.103 135.525 427.915 135.366 428.48 135.26L432.028 152.046C430.898 152.399 429.309 152.805 427.262 153.264C425.214 153.758 422.726 154.058 419.796 154.164C414.359 154.376 409.594 153.652 405.499 151.993C401.439 150.334 398.28 147.757 396.02 144.262C393.761 140.767 392.649 136.354 392.684 131.024V52.2314Z"
        fill="black" />
    <path
        d="M311.26 183.556C308.4 183.556 305.717 183.327 303.211 182.868C300.74 182.444 298.692 181.897 297.068 181.226L302.152 164.387C304.799 165.199 307.182 165.641 309.3 165.711C311.454 165.782 313.307 165.288 314.86 164.229C316.449 163.17 317.737 161.369 318.726 158.827L320.05 155.386L290.873 71.7217H314.595L331.434 131.451H332.281L349.279 71.7217H373.16L341.548 161.846C340.03 166.223 337.965 170.036 335.353 173.283C332.776 176.566 329.51 179.09 325.557 180.855C321.603 182.656 316.837 183.556 311.26 183.556Z"
        fill="black" />
    <path
        d="M311.26 183.556C308.4 183.556 305.717 183.327 303.211 182.868C300.74 182.444 298.692 181.897 297.068 181.226L302.152 164.387C304.799 165.199 307.182 165.641 309.3 165.711C311.454 165.782 313.307 165.288 314.86 164.229C316.449 163.17 317.737 161.369 318.726 158.827L320.05 155.386L290.873 71.7217H314.595L331.434 131.451H332.281L349.279 71.7217H373.16L341.548 161.846C340.03 166.223 337.965 170.036 335.353 173.283C332.776 176.566 329.51 179.09 325.557 180.855C321.603 182.656 316.837 183.556 311.26 183.556Z"
        fill="black" />
    <path d="M228.906 157.097V48.6511H251.834V138.193H298.326V157.097H228.906Z" fill="black" />
    <path d="M228.906 157.097V48.6511H251.834V138.193H298.326V157.097H228.906Z" fill="black" />
</svg>