<!-- by TradingView --><svg width="18" height="18" viewBox="0 0 18 18" xmlns="http://www.w3.org/2000/svg"><path fill="url(#asum5bdjt)" d="M0 0h18v18H0z"/><path d="M12.56 6.9a.32.32 0 0 1-.22.1H4.32a.32.32 0 0 1-.23-.55L5.41 5.1c.06-.07.14-.1.23-.1h8.04c.28 0 .43.35.23.55l-1.35 1.36Z" fill="url(#bsum5bdjt)"/><path d="M12.56 12.9a.32.32 0 0 1-.22.1H4.32a.32.32 0 0 1-.23-.55l1.32-1.35c.06-.06.14-.1.23-.1h8.04c.28 0 .43.35.23.55l-1.35 1.36Z" fill="url(#csum5bdjt)"/><path d="M12.56 8.1a.32.32 0 0 0-.22-.1H4.32a.32.32 0 0 0-.23.55L5.41 9.9c.06.07.14.1.23.1h8.04c.28 0 .43-.35.23-.55l-1.35-1.36Z" fill="url(#dsum5bdjt)"/><defs><linearGradient id="asum5bdjt" x1="3.35" y1="3.12" x2="21.9" y2="24.43" gradientUnits="userSpaceOnUse"><stop stop-color="#1A1E21"/><stop offset="1" stop-color="#06060A"/></linearGradient><linearGradient id="bsum5bdjt" x1="4" y1="6.59" x2="14" y2="4.98" gradientUnits="userSpaceOnUse"><stop stop-color="#599DB0"/><stop offset="1" stop-color="#47F8C3"/></linearGradient><linearGradient id="csum5bdjt" x1="4" y1="12.68" x2="14.01" y2="11.33" gradientUnits="userSpaceOnUse"><stop stop-color="#C44FE2"/><stop offset="1" stop-color="#73B0D0"/></linearGradient><linearGradient id="dsum5bdjt" x1="4.57" y1="9" x2="13.61" y2="9" gradientUnits="userSpaceOnUse"><stop stop-color="#778CBF"/><stop offset="1" stop-color="#5DCDC9"/></linearGradient></defs></svg>