<!-- by TradingView --><svg width="18" height="18" viewBox="0 0 18 18" xmlns="http://www.w3.org/2000/svg"><path fill="#FE0420" d="M0 0h18v18H0z"/><path d="M3.64 11.53c.44.31 1 .47 1.68.47a3.2 3.2 0 0 0 1.97-.56c.5-.38.84-.95 1.04-1.7.12-.47.23-.95.31-1.45.03-.18.04-.32.04-.44 0-.39-.1-.72-.3-1a1.8 1.8 0 0 0-.82-.63A3.08 3.08 0 0 0 6.37 6c-1.62 0-2.62.76-3 2.3a26.9 26.9 0 0 0-.33 1.43c-.03.18-.04.33-.04.45 0 .59.21 1.04.64 1.35Zm3.1-1.85c-.16.64-.61 1.06-1.3 1.06-.68 0-.91-.46-.8-1.06.11-.54.21-1 .32-1.36.18-.7.6-1.06 1.3-1.06.68 0 .9.46.78 1.06-.06.39-.16.84-.3 1.36Zm2.6 2.26c.04.04.09.06.15.06h1.13c.06 0 .11-.02.16-.06.05-.04.08-.1.1-.15l.39-1.79h1.16a2.7 2.7 0 0 0 1.68-.56c.42-.32.7-.8.84-1.46.03-.15.05-.3.05-.45 0-.5-.19-.87-.57-1.14-.37-.26-.87-.39-1.48-.39h-2.23c-.05 0-.1.02-.16.06a.25.25 0 0 0-.09.15L9.32 11.8a.2.2 0 0 0 .03.15Zm4.06-3.98a.96.96 0 0 1-.93.78h-.96l.3-1.48h1c.33 0 .62.07.62.45 0 .07 0 .16-.03.25Z" fill="#fff"/></svg>