<!-- by TradingView --><svg width="18" height="18" viewBox="0 0 18 18" xmlns="http://www.w3.org/2000/svg"><path fill="#F0F3FA" d="M0 0h18v18H0z"/><path d="M10.18 9H4c0 2.8 2.2 5 5.04 5a5.07 5.07 0 0 0 4.2-2.35L10.19 9Z" fill="url(#aus1ojdvk)"/><path d="M13.78 7.54 10.14 9l3.12 2.66a5.01 5.01 0 0 0 .52-4.12Z" fill="url(#bus1ojdvk)"/><path d="M11.8 4.84 10.17 9a204.2 204.2 0 0 1 3.61-1.45 5.14 5.14 0 0 0-1.98-2.7Z" fill="url(#cus1ojdvk)"/><path d="M11.81 4.84 10.18 9l.6-4.68c.46.16.88.42 1.03.52Z" fill="url(#dus1ojdvk)"/><path d="M10.77 4.31 10.18 9 8.93 4c.85 0 1.6.2 1.84.31Z" fill="url(#eus1ojdvk)"/><path d="M8.93 4C5.15 4.03 4.05 7.15 4 9h6.19L8.93 4Z" fill="url(#fus1ojdvk)"/><defs><linearGradient id="aus1ojdvk" x1="4.64" y1="10.76" x2="10.95" y2="8.34" gradientUnits="userSpaceOnUse"><stop offset=".76" stop-color="#1652F0"/><stop offset="1" stop-color="#3468F2"/></linearGradient><linearGradient id="bus1ojdvk" x1="10.86" y1="8.37" x2="10.58" y2="9.9" gradientUnits="userSpaceOnUse"><stop stop-color="#6B91F4"/><stop offset="1" stop-color="#3469F3"/></linearGradient><linearGradient id="cus1ojdvk" x1="10.73" y1="7.76" x2="11.37" y2="8.43" gradientUnits="userSpaceOnUse"><stop stop-color="#96B3F7"/><stop offset="1" stop-color="#6C92F5"/></linearGradient><linearGradient id="dus1ojdvk" x1="10.46" y1="5.34" x2="11.42" y2="5.57" gradientUnits="userSpaceOnUse"><stop stop-color="#A9BFF9"/><stop offset="1" stop-color="#98B4FA"/></linearGradient><linearGradient id="eus1ojdvk" x1="10.43" y1="6.21" x2="9.53" y2="6.26" gradientUnits="userSpaceOnUse"><stop stop-color="#A5BDFA"/><stop offset="1" stop-color="#BCCFFA"/></linearGradient><linearGradient id="fus1ojdvk" x1="8.49" y1="6.41" x2="7.09" y2="9.04" gradientUnits="userSpaceOnUse"><stop offset=".13" stop-color="#BFCDFE"/><stop offset="1" stop-color="#F0F3FA"/></linearGradient></defs></svg>