<!-- by TradingView --><svg width="18" height="18" viewBox="0 0 18 18" xmlns="http://www.w3.org/2000/svg"><path fill="#F0F3FA" d="M0 0h18v18H0z"/><path d="M13.81 5.8c-.57-.29-1.3-.5-2.2-.67a10.28 10.28 0 0 0-3.37-.09l-1.16.39h-.02c-.29.16-.45.3-.48.41-.1-.23-.04-.44.2-.64a.3.3 0 0 0 .08-.1.27.27 0 0 0 .02-.11c0-.23.12-.4.36-.5a6.7 6.7 0 0 1 3.73-.37v.01l.01.03v.02l-.02.02a.07.07 0 0 1-.05.01l-.81.07a.18.18 0 0 0-.11.05.15.15 0 0 0-.05.1c0 .04.02.08.05.1.02.04.06.06.1.06.89.1 2.05.2 2.7.41.46.15.8.41 1.02.8Z" fill="#CED3DD"/><path d="m13.81 5.8.08.15a.1.1 0 0 1-.01.09.1.1 0 0 1-.04.03.11.11 0 0 1-.05.01l-.27.02-.62-.18c-.17-.24-.39-.28-.66-.13-.19-.2-.42-.32-.7-.34-.09-.01-.14 0-.16.04-.02.04-.02.1 0 .16-.2.04-.39.03-.54-.02L9.6 5.52c-.16-.24-.56-.25-1.2-.03a2.24 2.24 0 0 0-1.3.4v.02c.02.03.05.04.1.02l-.65.4c.04-.18.06-.34.04-.49.03-.12.2-.25.48-.4l.02-.01 1.16-.39h.03c.97-.16 2.08-.12 3.33.1.9.15 1.64.37 2.21.65Z" fill="#9A867C"/><path d="m9.6 5.52-1.44.41c-.14-.16-.06-.3.23-.44.64-.22 1.04-.2 1.2.03Z" fill="#3B1206"/><path d="M8.39 5.49c-.3.13-.37.28-.23.44-.22-.17-.45-.15-.69.09l-.02.01c-.06.02-.1 0-.12-.06a.46.46 0 0 0-.14-.04c-.05.02-.08.01-.1-.02V5.9l.02-.02c.38-.26.8-.39 1.28-.38Z" fill="#975B2D"/><path d="M12.24 5.79c.06.1.2.18.4.24-.12.04-.25.02-.4-.05a1.69 1.69 0 0 0-.37-.14 1.7 1.7 0 0 1-.48-.2c-.03-.06-.03-.11-.01-.15.02-.04.07-.05.16-.04.28.02.51.14.7.34Z" fill="#3B1206"/><path d="m9.6 5.52 1.24.1c-.5.14-1.14.29-1.64.29.74.01 1.37-.04 2.1.08V6a.01.01 0 0 1-.01 0l-1.44.12c-.02 0-.03 0-.04.02a.06.06 0 0 0-.02.03v.04l.04.02c.15.06.3.14.42.24l.02.04v.04c-.01.03 0 .06.03.09.48.44 1.06.72 1.73.85a.2.2 0 0 1 .09.04l.05.08.18.57v.76c0 .03 0 .06.03.08.02.02.05.03.08.03.08.01.15-.02.21-.1l.88.11c.04 0 .08 0 .11-.02a.14.14 0 0 0 .07-.1c.11-.6.12-1.24.02-1.92.23.32.3.74.21 1.26l-.04.8-.16.18c-.02-.05-.05-.06-.1-.05a.1.1 0 0 0-.03.03.09.09 0 0 0-.02.03l-.1.3a.17.17 0 0 1-.05.08.2.2 0 0 1-.1.04c-2 .32-3.75.88-5.44-.54l-.03-.01-.03.01-.01.02v.03c.64.69 1.45 1.04 2.42 1.03.94 0 1.97-.09 3.1-.26a.6.6 0 0 1-.18.25c-1.7.44-3.2.54-4.82-.1A2.98 2.98 0 0 1 6.7 8.45c.07-.32.04-.52-.1-.58l.27-.89c.25-.17.3-.28.14-.32.05-.22.16-.45.33-.69.02.06.06.08.12.06l.02-.01c.24-.24.47-.26.7-.09l1.42-.41Z" fill="#EBB83D"/><path d="M11.39 5.65c.14.08.3.15.48.19.11.02.24.07.38.14s.27.1.39.05l.26-.11.62.18c0 .1.04.2.08.29-.06.17 0 .3.14.35.04.12.04.22.01.28.1.68.1 1.32-.02 1.92 0 .04-.03.07-.07.1a.18.18 0 0 1-.11.02l-.88-.1a4 4 0 0 0-.1-1.52c.06-.04.08-.08.07-.12 0-.04-.04-.07-.1-.09-.2-.06-.29-.18-.29-.34a.2.2 0 0 0-.07-.16c-.3-.3-.67-.29-1.1.02a.21.21 0 0 0-.06.06.16.16 0 0 0-.02.07l.01.06.05.04c.1.02.2.03.26 0h.02l.01-.03a.04.04 0 0 0 0-.04l-.05-.04-.02-.02v-.03l.02-.02.02-.01c.54-.11.86.08.98.57l.05.82-.18-.57a.17.17 0 0 0-.05-.08.2.2 0 0 0-.09-.04 3.58 3.58 0 0 1-1.73-.85c-.03-.03-.04-.06-.03-.09v-.04a.07.07 0 0 0-.02-.04c-.13-.1-.27-.18-.42-.24a.06.06 0 0 1-.04-.02.05.05 0 0 1 0-.04c0-.01 0-.03.02-.03l.04-.02L11.29 6h.01v-.01c-.73-.12-1.36-.07-2.1-.08.5 0 1.15-.15 1.64-.28.15.05.33.06.55.02Z" fill="#FAD765"/><path d="m12.9 5.92-.26.11c-.2-.06-.34-.14-.4-.24.27-.15.49-.1.66.13Z" fill="#C69C62"/><path d="M8.1 6.98c-.17.2-.3.28-.37.22.2-.16.34-.33.42-.51a.28.28 0 0 1 .08-.1c.41-.33.79-.25 1.12.22.06.08.04.14-.05.18a.1.1 0 0 1-.11-.02 1.79 1.79 0 0 0-.03-.07.16.16 0 0 0-.06-.07.19.19 0 0 0-.08-.03c-.39-.05-.7.02-.93.18ZM12.58 7.44a.42.42 0 0 0-.28-.08c-.12-.5-.44-.68-.98-.57l-.02.01-.02.02v.03l.02.02.04.04.01.02v.04l-.03.02a.48.48 0 0 1-.26-.01.09.09 0 0 1-.05-.04.1.1 0 0 1-.01-.06c0-.03 0-.05.02-.07a.21.21 0 0 1 .06-.06c.43-.3.8-.31 1.1-.02a.2.2 0 0 1 .07.16c0 .16.1.28.3.34.05.02.09.05.1.1 0 .03-.02.07-.07.11Z" fill="#3B1206"/><path d="M6.86 6.98A.89.89 0 0 1 7 6.66c.16.04.11.15-.14.32Z" fill="#C47914"/><path d="M8.1 6.98c-.05.2-.2.35-.18.54a5.73 5.73 0 0 1-.11 1.52.1.1 0 0 1-.05.02.1.1 0 0 1-.05 0 .1.1 0 0 1-.05-.02l-.08-.07a.15.15 0 0 1-.04-.06.14.14 0 0 1 0-.06l.2-1.65c.07.06.19-.02.35-.22Z" fill="#D9DEEF"/><path d="M6.7 8.45c-.09.49-.05.9.1 1.22a3.12 3.12 0 0 0 1.66 1.55l.04-.02.02-.03v-.04l-.04-.1v-.04l.01-.03.04-.02h.04c.78.27 1.58.33 2.4.2l-.15.27a.1.1 0 0 0 .01.12l.06.04h.07l1.2-.4.14-.08.65-.6a.8.8 0 0 0 .24-.27.6.6 0 0 0 .18-.25c.07-.12.14-.15.21-.09a4.3 4.3 0 0 1-1.67 1.67c-.78.11-1.56.21-2.35.3-.6.08-1.09.02-1.47-.17.16.03.3.02.42-.03.03-.07 0-.11-.08-.13-.2-.03-.46-.03-.78.01-.4-.6-.71-1.17-.96-1.72a2.8 2.8 0 0 1-.1-1.94c.14.06.17.26.1.58Z" fill="#975B2D"/><path d="M9.46 9.47a.7.7 0 0 1-.13-.04c-.36-.13-.58-.42-.65-.86 0-.04 0-.07.02-.1a.19.19 0 0 1 .08-.08.21.21 0 0 1 .23.03l.08.07.1.06.12.02h2.22a.14.14 0 0 1 .14.09c.01.02.02.05.01.08 0 .03-.02.05-.04.07l-.65.59a.15.15 0 0 1-.1.04h-.37l-.02.01c-.07.13-.42.13-1.04.02Z" fill="#3B1206"/><path d="M13.19 10.22a.8.8 0 0 1-.24.28 5.89 5.89 0 0 1-4.46.46.07.07 0 0 0-.02.03v.04l.04.1v.04l-.01.03a.08.08 0 0 1-.08.01A3.12 3.12 0 0 1 6.8 9.67a2.04 2.04 0 0 1-.1-1.22c.34.8.9 1.36 1.67 1.67a7.4 7.4 0 0 0 4.82.1Z" fill="#C47914"/><path d="M9.39 9.23a.2.2 0 0 1-.12.02.18.18 0 0 1-.1-.06.15.15 0 0 1 .02-.2.6.6 0 0 1 .41-.18 58.89 58.89 0 0 1 1.38 0c.1.03.14.14.12.32 0 .03-.02.06-.04.08a.2.2 0 0 1-.07.06.22.22 0 0 1-.19 0c-.51-.2-.99-.22-1.41-.04Z" fill="#CECBD1"/><path d="M13.76 9.26c.01.28-.04.49-.18.62-.07-.06-.14-.03-.21.09-1.13.17-2.16.26-3.1.26a3.13 3.13 0 0 1-2.42-1.06l.01-.02.03-.01.03.01c1.69 1.42 3.43.86 5.44.54a.2.2 0 0 0 .1-.04.17.17 0 0 0 .05-.08l.1-.3c0-.01 0-.02.02-.03a.1.1 0 0 1 .04-.03c.04-.01.07 0 .09.05Z" fill="#C47914"/><path d="m7.36 11.85-.64.27a.21.21 0 0 0-.07.05c-.12.14-.13.32-.05.54 0 .01 0 .02.02.02l.03.01h.03l.02-.03.05-.13c.01-.05.08-.06.2-.04.94.18 1.6.24 1.94.18.93-.17 1.63-.1 2.1.17a30.66 30.66 0 0 0-3.78-.14c-.03 0-.05.01-.05.03a.02.02 0 0 0 0 .02l.02.01 2.66.06c.46.01 1.39.4 1.82.27.23-.08.4-.26.51-.56.03-.01.05-.1.06-.25l.07.3c.01.05 0 .11-.03.16-.24.36-.58.52-1.04.5-2.58-.07-4.06-.08-5.44-.32a.2.2 0 0 1-.11-.05.17.17 0 0 1-.05-.1 6.15 6.15 0 0 1 .51-2.98.12.12 0 0 1 .13-.02c.07.04.11.1.11.17s.02.14.06.2l.92 1.66Z" fill="#A5A0A1"/><path d="m12.95 10.5-.65.59a.35.35 0 0 1-.14.08l-1.2.4h-.07a.12.12 0 0 1-.06-.04.1.1 0 0 1-.02-.12l.17-.27c.7-.1 1.36-.31 1.97-.64Z" fill="#C69C62"/><path d="M8.5 11.65a.82.82 0 0 0-.4.03c.37.2.86.25 1.46.18l2.35-.3c-.15.07-.26.15-.34.24-.1.11-.1.23-.01.34.13.15.35.21.67.19 0 .15-.03.24-.06.25-.33.56-.72.67-1.18.3-.47-.27-1.17-.33-2.1-.16-.35.05-1 0-1.94-.18-.12-.02-.19 0-.2.04a.99.99 0 0 1-.05.13l-.02.03a.06.06 0 0 1-.06 0l-.02-.03c-.08-.22-.07-.4.05-.54a.21.21 0 0 1 .07-.05l.64-.27c.4-.1.5-.2.3-.32.31-.04.57-.04.77 0 .08 0 .1.05.08.12Z" fill="#866A60"/><path d="M7 6.66c.05-.22.16-.45.33-.69a.46.46 0 0 0-.14-.04l-.65.4-.13.57v.06c.03.2 0 .37-.12.52l-.03.02h-.04a.06.06 0 0 1-.03-.02.05.05 0 0 1-.01-.04.7.7 0 0 1 .08-.24v-.05a.07.07 0 0 0-.02-.04.1.1 0 0 0-.1-.01L4 8.12v3.27l.13.46a.05.05 0 0 0 .05.03h.01v-.02c-.03-1.04.1-1.72.85-2.67.36-.46.7-.93 1.01-1.41l-.16.71a.35.35 0 0 1-.08.16c-1.27 1.38-2 3.05-.53 4.6a1.32 1.32 0 0 1-.52-.32.05.05 0 0 0-.04 0v.01l-.01.01a.04.04 0 0 0 0 .04 4.7 4.7 0 0 0 2.69.99c1.53.1 2.99-.14 4.37-.7.55-.29 1.05-.8 1.5-1.51.6-.94.81-1.84.65-2.7l-.16.19c.01.28-.04.49-.18.62a4.3 4.3 0 0 1-1.67 1.67c-.15.08-.26.16-.34.25-.1.11-.1.23-.01.34.13.15.35.21.67.19l.07.3c.01.05 0 .11-.03.16-.24.35-.58.52-1.04.5-.31 0-.6 0-.9-.02-2.04-.05-3.33-.1-4.54-.3a.2.2 0 0 1-.11-.05.17.17 0 0 1-.05-.1 6.15 6.15 0 0 1 .51-2.98.12.12 0 0 1 .13-.02c.07.04.11.1.11.17s.02.14.06.2l.92 1.66c.4-.1.5-.2.3-.32-.4-.6-.72-1.17-.97-1.72a2.8 2.8 0 0 1-.1-1.94l.27-.89A.89.89 0 0 1 7 6.66Z" fill="#CED3DD"/><path d="M12.17 12.58c-.1.3-.27.48-.51.56-.43.14-1.36-.26-1.82-.27a289.46 289.46 0 0 1-2.68-.08c0-.03.02-.04.05-.04 1.29-.03 2.55.02 3.78.14.46.36.85.25 1.18-.3Z" fill="#9A867C"/></svg>