<!-- by TradingView --><svg width="18" height="18" viewBox="0 0 18 18" xmlns="http://www.w3.org/2000/svg"><path fill="#F0F3FA" d="M0 0h18v18H0z"/><path d="M8.75 3h.4a6.03 6.03 0 0 1 4.48 2.2A5.96 5.96 0 0 1 15 8.75v.47a6.12 6.12 0 0 1-3.02 4.99A6.1 6.1 0 0 1 9.2 15h-.42a6.1 6.1 0 0 1-3.72-1.48A5.97 5.97 0 0 1 3.03 9.5L3 9.28v-.52c.05-.91.28-1.75.69-2.53A6.01 6.01 0 0 1 8.76 3Z" fill="#AAECEC"/><path d="M8.77 3.53h.37a5.5 5.5 0 0 1 5.33 5.25v.42a5.58 5.58 0 0 1-2.76 4.55c-.78.44-1.62.68-2.53.72H8.8a5.57 5.57 0 0 1-3.4-1.35 5.44 5.44 0 0 1-1.85-3.66l-.02-.2v-.48c.05-.83.26-1.6.62-2.3a5.48 5.48 0 0 1 4.62-2.95Z" fill="url(#a)"/><path d="M8.81 4.41a.1.1 0 0 0 .08 0h.23a4.6 4.6 0 0 1 4.47 4.4v.36a4.68 4.68 0 0 1-2.31 3.81c-.66.37-1.37.57-2.13.6h-.32a4.67 4.67 0 0 1-3.8-2.3A4.73 4.73 0 0 1 4.4 9.2v-.4c.04-.69.22-1.33.53-1.93A4.6 4.6 0 0 1 8.8 4.41Z" fill="url(#b)"/><path d="m9.04 6 .02.02.5.48c.16.18.28.34.36.5.2.37.2.77-.02 1.21-.13.28-.29.55-.47.78-.6.78-.95 1.21-1.03 1.31a2.74 2.74 0 0 0-.25.37.06.06 0 0 0 .01.04l.02.02a1.59 1.59 0 0 0 2.09-.4c.16-.22.26-.47.3-.75a3 3 0 0 1 .03-.26l-.01-.01a.04.04 0 0 0-.05 0 4.89 4.89 0 0 1-1.52.74.02.02 0 0 1 0-.02c.45-.28.81-.6 1.1-.96a2.72 2.72 0 0 0 .63-1.32h.02a.03.03 0 0 1 .03 0c.2.25.36.52.47.8.13.43.16.86.1 1.28a2.34 2.34 0 0 1-1.4 1.76c-.4.17-.81.23-1.26.2a2.6 2.6 0 0 1-.96-.34.05.05 0 0 0-.04.02l-.02.02-.16.51a2.4 2.4 0 0 1 .13-.9c.1-.3.26-.65.47-1.02a21.45 21.45 0 0 1 .78-1.27c.12-.2.22-.44.3-.73a.92.92 0 0 0-.17-.91.05.05 0 0 0-.06.01l-.77.77a3 3 0 0 0-.62.77 1.55 1.55 0 0 0-.12.94.03.03 0 0 0 .04 0l.42-.34a.02.02 0 0 1 .04.02v.01a3.08 3.08 0 0 0-.72 1.67.01.01 0 0 1-.02 0 2.4 2.4 0 0 1 .08-3.35C7.89 7.07 8.46 6.52 9.05 6Z" fill="#F0F3FA"/><defs><linearGradient id="a" x1="4.78" y1="6.1" x2="13.07" y2="12.2" gradientUnits="userSpaceOnUse"><stop stop-color="#0AC1C9"/><stop offset="1" stop-color="#018589"/></linearGradient><linearGradient id="b" x1="4.94" y1="6.52" x2="12.96" y2="10.71" gradientUnits="userSpaceOnUse"><stop offset=".19" stop-color="#008382"/><stop offset="1" stop-color="#00C2C9"/></linearGradient></defs></svg>