<!-- by TradingView --><svg width="18" height="18" viewBox="0 0 18 18" xmlns="http://www.w3.org/2000/svg"><path fill="url(#a)" d="M0 0h18v18H0z"/><path d="M9 4v1.4c0 .05.02.09.05.12a1 1 0 0 1 .3.36L9.9 7c-.06 0-.1-.01-.12-.03-.14-.1-.28-.18-.44-.24l-.31-.65c0-.07.02-.13.07-.18.04-.03.04-.06.02-.1-.02-.04-.06-.06-.1-.06-.06 0-.12-.02-.18-.08-.01-.02-.03-.02-.05 0l-.13.14c-.26.55-.48.98-.66 1.3a18.12 18.12 0 0 0-.51.95l-1.22 1.8a.55.55 0 0 0-.1.22c0 .05-.03.08-.07.1l-.73.3-.02-.02a22.37 22.37 0 0 0 3.58-6.39c.01-.04.04-.06.07-.06Z" fill="#FDF3D0"/><path d="M9.04 4.01v.06a11.74 11.74 0 0 1 .32.87 23.2 23.2 0 0 0 3.26 5.53l-.02.02h-.08a.92.92 0 0 0-.76-.25l-.44.18.08-.14a.05.05 0 0 1 .05-.03h.17c.02 0 .04-.02.05-.04.01-.02 0-.05-.01-.06l-.12-.1.1-.01c.04-.02.05-.05.03-.09l-.1-.17-.11-.22a12.62 12.62 0 0 0-.96-1.35l-.25-.34a.3.3 0 0 0-.14-.09l-.23-.07-.3-.55.2.04c.03 0 .06.02.08.05l.3.41c0 .02.02.02.03.02h.03l.02-.01v-.03L9.91 7c-.2-.37-.38-.74-.56-1.12a1 1 0 0 0-.3-.36A.14.14 0 0 1 9 5.4V4l.04.01Z" fill="#DC811C"/><path d="m9.35 4.3.26.26.16.17c.03.04.03.08 0 .12l-.2.18c-.02.02-.03.02-.05 0L9.47 5l-.2-.67c0-.02 0-.03.02-.03a.1.1 0 0 1 .06 0ZM8.7 4.36l-.26.14c-.25.04-.5.13-.73.28-.01 0-.02.02-.01.04l.03.02h.38c.02 0 .04.02.04.04 0 .03 0 .04-.03.05a5.5 5.5 0 0 0-1.93.81c-.5.36-.9.79-1.22 1.3l.01.04.04-.01.21-.3c.01-.01.02-.01 0 0l-.01.07c-.13.37-.25.6-.34.66-.17.12-.29.3-.37.52l-.01.01-.02.02c-.09.33-.14.67-.14 1.01l-.07.01c-.03 0-.04-.02-.05-.04l-.05-.17c0-.02-.02-.03-.04-.03s-.03.02-.03.04c0 .03-.02.06-.03.07-.03 0-.04 0-.04-.02-.03-.56.08-1.12.34-1.7a4.82 4.82 0 0 1 2.66-2.56 5 5 0 0 1 1.61-.37c.02 0 .04.02.06.07Z" fill="#FEFCE5"/><path d="m13.06 6.27.33.52a4.67 4.67 0 0 1 .6 2.85V9.5c0-.02 0-.02-.02 0a22.53 22.53 0 0 1-.32.35.88.88 0 0 0-.14.28l-.04.11-.17.55c-.07.19-.15.35-.25.5l-.39.56c-.15.2-.42.47-.8.78a3.5 3.5 0 0 1-1.92.82c-.45.04-.9.02-1.34-.07H9c.03 0 .03 0 0 0h-.04l.01.02c.07.04.13.05.21.04l.33-.03a4.2 4.2 0 0 0 2.57-1.07 5.1 5.1 0 0 0 1.42-2.46 4.02 4.02 0 0 0-.6-3.02c-.2-.3-.34-.5-.41-.58-.2-.23-.34-.37-.44-.44l-.52-.38a4 4 0 0 0-1.63-.69l-.3-.22-.26-.26h.25c1.44.21 2.6.87 3.46 1.97Z" fill="#E08C1D"/><path d="m8.7 4.36-.22.72a.09.09 0 0 1-.07.06c-.26.05-.51.11-.77.18a4.98 4.98 0 0 0-1.81 1.13l-.16.2c-.12.13-.21.24-.27.33-.23.36-.42.75-.56 1.17.01-.18.05-.35.1-.51.01-.06.05-.14.1-.24.06-.11.1-.2.11-.25 0-.02.02-.04.03-.05.33-.47.54-.74.63-.84l.38-.34c.32-.22.62-.4.92-.55a5.1 5.1 0 0 1 1.08-.34c.04 0 .06-.02.07-.05a.07.07 0 0 0-.02-.08c-.07-.07-.08-.12-.03-.17l.23-.23.26-.14Z" fill="#D16B18"/><path d="m8.44 4.5-.23.23c-.05.05-.04.1.03.17.02.02.03.05.02.08a.08.08 0 0 1-.07.05 5.11 5.11 0 0 0-1.08.34c-.3.15-.6.33-.92.55l-.38.34a9.05 9.05 0 0 0-.66.89c0 .05-.05.14-.1.25l-.12.24c-.04.16-.08.33-.09.5-.1.4-.15.8-.12 1.2l-.02.31-.02-.27c0-.02-.01-.02-.02 0l-.05.04a.05.05 0 0 1-.05.01.04.04 0 0 1-.03-.02l-.1-.2a.36.36 0 0 1-.1-.14 3.99 3.99 0 0 1 .18-1.05c.08-.23.2-.4.37-.52.1-.07.2-.29.34-.66a19.3 19.3 0 0 1 .01-.07l-.2.3c-.02.01-.03.02-.05 0a4.69 4.69 0 0 1 1.2-1.34 5.5 5.5 0 0 1 1.94-.8c.03 0 .04-.02.03-.05 0-.02-.02-.04-.04-.04h-.38c-.01 0-.03 0-.03-.02l.01-.04c.24-.15.48-.24.73-.28ZM8.6 13.4 8 13.3a4.48 4.48 0 0 0-.28-.09 2.52 2.52 0 0 1-.54-.18c-.02-.01-.02-.03 0-.04a.43.43 0 0 1 .22-.09 4.22 4.22 0 0 0 1.75.25c0 .08.03.12.1.14a.7.7 0 0 0 .28-.02l.07-.01c.45-.01.82-.1 1.1-.25a.58.58 0 0 1 .13-.05l.12-.04a2.3 2.3 0 0 1 .42-.23l.51-.37a4.12 4.12 0 0 0 1.42-2.43c.03-.17.04-.34.03-.52l-.03-.03h-.04l-.01.04a3.9 3.9 0 0 0-.1-1.2c0-.01 0-.02.02-.02h.01l.02.02c0 .1.02.2.08.26h.02l.01-.01c0-.06 0-.12-.02-.2a3.64 3.64 0 0 0-.85-1.69c-.3-.33-.59-.6-.87-.8a4.76 4.76 0 0 0-1.33-.62 2.2 2.2 0 0 0-.6-.1c-.03 0-.05.02-.04.06 0 .03-.02.05-.06.06A.24.24 0 0 1 9.47 5l.05.04c.02.02.03.02.05 0l.2-.18c.03-.04.03-.08 0-.12l-.16-.17.3.22a8.12 8.12 0 0 1 3 2.08 4.02 4.02 0 0 1 .6 3.03 5.1 5.1 0 0 1-1.42 2.46 4.2 4.2 0 0 1-2.57 1.07l-.33.03a.34.34 0 0 1-.2-.04l-.02-.01.02-.01H9c.03 0 .03 0 0 0H8.6Z" fill="#FDD965"/><path d="M13.15 8.2a4.07 4.07 0 0 0-1.77-2.4 4.49 4.49 0 0 0-1.83-.66c.05 0 .06-.03.06-.06 0-.04.01-.05.05-.05.21 0 .4.04.59.1.56.17 1 .38 1.33.61.28.2.57.47.87.8a3.64 3.64 0 0 1 .87 1.89l-.01.02-.02-.01a.38.38 0 0 1-.08-.26l-.02-.02h-.01c-.01 0-.02 0-.02.02l-.01.02Z" fill="#B1511C"/><path d="M9.04 6.08c-.04-.02-.07-.02-.09 0-.42.88-.85 1.67-1.3 2.38L6.7 9.92c-.05.05-.06.09-.04.11l-.37-.18 1.22-1.8c.04-.1.21-.42.51-.95.18-.32.4-.75.66-1.3l.13-.15h.05c.06.07.12.1.18.1.04-.01.08 0 .1.05.02.04.02.07-.02.1a.25.25 0 0 0-.07.18Z" fill="#E08C1D"/><path d="m9.9 7 .34.64v.03l-.02.01h-.03c-.01 0-.03 0-.04-.02l-.29-.4a.13.13 0 0 0-.08-.06l-.2-.04-.23-.43c.16.06.3.14.44.24.02.02.06.03.12.03Z" fill="#FDD965"/><path d="M9.01 7.71c-.02.26-.02.63 0 1.12 0 .18-.07.36-.2.52l-.87.15H7.9c-.02-.02-.02-.04 0-.06l.3-.47c.22-.33.47-.75.75-1.25.01-.02.03-.02.06 0Z" fill="#FEFCE5"/><path d="M9.04 7.75c-.03.25-.03.45 0 .6.1.46.35.8.77 1 .01.01.02.03.01.04 0 .02-.01.03-.03.03h-.57l-.03.01-.1.16c0 .01-.01.02-.03.02-.02 0-.03 0-.04-.02a.75.75 0 0 0-.22-.24c.14-.16.21-.34.2-.52-.01-.5 0-.86.01-1.12l.03.04Z" fill="#F5A921"/><path d="m11.54 10.06-.2-.03A19.94 19.94 0 0 1 9.89 7.7l.23.07c.05.02.1.05.14.09l.25.34c.1.17.18.28.25.35a12.62 12.62 0 0 1 .83 1.22l.09.17c.02.04.01.07-.03.09a.24.24 0 0 1-.1.02Z" fill="#B1511C"/><path d="M8.52 10.1 8 9.6a.16.16 0 0 1-.03-.04l-.03-.06.86-.15c.09.06.16.14.22.24 0 .02.02.02.04.02s.03 0 .04-.02l.1-.16.02-.01h.57c.02 0 .03-.01.03-.03l-.01-.03a1.38 1.38 0 0 1-.77-1 2.04 2.04 0 0 1 0-.61l1.06 1.71v.03A3.83 3.83 0 0 0 9 10.78c-.02 0-.02 0-.03-.02a3.3 3.3 0 0 0-.45-.67Z" fill="#D16B18"/><path d="M4.34 9.07c.02.06.05.11.1.15l.15.84a.89.89 0 0 0-.32-.33A.63.63 0 0 0 4 9.3L4 9.02l.14.04c.02 0 .04.02.04.05l.1.38.03.02.02-.02v-.42Z" fill="#DC811C"/><path d="m4.7 9.65.1.56v.01l.07.3.01.06a4.33 4.33 0 0 0 1.73 2c.18.12.36.2.55.25l.07.01a.16.16 0 0 1-.07.02c.05 0 .14.01.25.04a.43.43 0 0 0-.23.1v.03c.13.06.31.12.55.18l.28.08-.27-.02h-.01v.02l.12.07.02.01c.35.1.6.3.76.6l-.28-.03-.55-.57a.97.97 0 0 1-.34-.16c-.04-.02-.13-.04-.26-.04l-.06-.13A.08.08 0 0 0 7.1 13l-.2-.1a4.69 4.69 0 0 1-1.91-1.78l-.22-.43-.11-.3h-.02l-.4-.52c.17.12.3.28.4.46v.01c.02 0 .02 0 .02-.02l-.07-.26-.15-.84.09.19.03.02h.05l.05-.06.02.01.02.27Z" fill="#F5A921"/><path d="M4.27 9.73c-.07-.13-.15-.2-.24-.23v.1l-.02-.3c.16.13.24.27.26.43Z" fill="#D16B18"/><path d="M4.72 9.34c0 .12.02.24.06.36.05.39.13.7.26.96.2.4.44.77.7 1.09a3.12 3.12 0 0 0 .75.62c.04.05.1.1.2.13l.1.05a9.5 9.5 0 0 1 .62.35c-.11-.03-.2-.04-.25-.04l.06-.01h.06c.02 0 .02 0 .01-.02 0-.02-.03-.02-.06 0-.01-.03-.02-.03-.04-.03 0 .01.01.02.04.02v.02c-.03-.01-.05-.01-.07 0l-.02-.07a1.33 1.33 0 0 0-.37-.2c-.05-.04-.1-.05-.14-.04v.03l-.02.01a4.33 4.33 0 0 1-1.74-2.05 1.65 1.65 0 0 0-.07-.3l-.1-.57.02-.31Z" fill="#B1511C"/><path d="M9.16 13.15a4.59 4.59 0 0 0 2.8-1.15 4.1 4.1 0 0 0 1.3-2.65.04.04 0 0 1 .05-.01c.02 0 .02.02.03.03 0 .18 0 .35-.03.51-.12.6-.35 1.14-.7 1.64a10.95 10.95 0 0 1-.39.49 1.99 1.99 0 0 0-.33.3l-.5.38a.45.45 0 0 1-.54.27.58.58 0 0 0-.13.05 2.57 2.57 0 0 1-1.18.26.7.7 0 0 1-.27.02c-.08-.02-.12-.06-.1-.14Z" fill="#FDF3D0"/><path d="M4.27 9.73c.13.08.23.19.32.33l.07.26-.01.02h-.02a1.16 1.16 0 0 0-.4-.47l-.2-.37c.1.02.17.1.24.23ZM13.99 9.64a5.04 5.04 0 0 1-2.34 3.62 5.6 5.6 0 0 1-2.47.74l-.55-.02a1.16 1.16 0 0 0-.78-.62l-.12-.07v-.01l.01-.01.27.02.59.1c.44.1.89.11 1.34.07a3.5 3.5 0 0 0 1.92-.82 4.85 4.85 0 0 0 1.44-1.84l.17-.55.04-.11c.03-.1.07-.2.14-.28A3.68 3.68 0 0 1 14 9.5v.13Z" fill="#D04F0B"/><path d="m4.23 9.87.4.52h.02l.12.3-.25-.35c-.2-.17-.36-.37-.47-.61l-.02-.12v-.1l.2.36ZM6.65 10.03c.1.04.2.08.27.15l-.14-.05h-.02v.03l.16.1a.67.67 0 0 1-.21-.1c-.04-.04-.08-.05-.12-.03a.8.8 0 0 1-.17.05c-.03 0-.04 0-.04-.03l.02-.01c.02-.02.02-.03 0-.05-.02-.02-.04-.04-.06-.04-.02 0-.04.01-.05.03-.05.1-.02.18.09.22l.72.36c.53.31.93.72 1.21 1.21-.03.01-.07 0-.12-.05a4.94 4.94 0 0 0-2.26-1.26l-.55-.1.73-.3a.12.12 0 0 0 .08-.09.55.55 0 0 1 .09-.22l.37.18Z" fill="#B1511C"/><path d="M4.59 10.52c.02.1-.03.03-.15-.18H4.4v.03l.33.48a1.65 1.65 0 0 0 .26.27c.45.77 1.09 1.36 1.9 1.78.12.2.24.34.38.4.18.08.3.15.37.21.11.09.2.2.26.36a4.72 4.72 0 0 1-2.3-1.15 4.63 4.63 0 0 1-.88-1.06 2.78 2.78 0 0 1-.46-.99 7.01 7.01 0 0 0-.18-.75h.04l.47.6Z" fill="#7B2509"/><path d="m11.35 10.03.2.03.1.09c.03.01.03.04.02.06 0 .02-.03.04-.05.04h-.17a.05.05 0 0 0-.05.03l-.08.14a4.65 4.65 0 0 0-1.3.9c-.15.18-.27.37-.36.57l-.13.2H9.5c.03-.14.07-.24.1-.32.34-.78.92-1.36 1.75-1.74Z" fill="#FEFCE5"/><path d="M6.7 10.17c.14.15.3.29.48.42.02.01.03.03.02.05-.01.03-.05.04-.1.02l-.72-.36c-.1-.04-.14-.12-.1-.22l.06-.03.07.04c.01.02.01.03-.01.05h-.02c0 .03 0 .05.03.04a.8.8 0 0 0 .18-.05c.04-.02.08 0 .12.04Z" fill="#FDF3D0"/><path d="M6.92 10.18c.51.28.91.65 1.2 1.13a13.61 13.61 0 0 1-.93-.78 1.43 1.43 0 0 0-.27-.26l-.16-.11v-.03h.02l.14.05Z" fill="#DC811C"/><path d="M6.92 10.27a7.41 7.41 0 0 1 .27.26l.15.15c.24.22.5.42.78.63a2.47 2.47 0 0 1 .38.8l-.19-.24c-.28-.5-.68-.9-1.21-1.2.05 0 .09 0 .1-.03 0-.02 0-.04-.02-.05a2.82 2.82 0 0 1-.47-.42c.07.05.14.08.21.1Z" fill="#FDD965"/><path d="m12.52 10.49-.15.03c-.35.06-.6.12-.75.17-.66.23-1.29.62-1.88 1.18-.02.02-.05.03-.08.02.1-.2.21-.4.36-.56l.22-.2.23-.18c.26-.2.55-.38.85-.53l.44-.18h.02c.28-.03.52.05.74.25Z" fill="#C37929"/><path d="m4.77 10.7.22.42-.05-.04c-.1-.1-.18-.18-.21-.23a249 249 0 0 0-.33-.5l.02-.02h.02c.12.22.17.28.15.19l-.07-.18.25.35Z" fill="#962626"/><path d="M6.77 12.57c.1.1.23.16.37.2l.02.06a1.6 1.6 0 0 1-.55-.26h.03v-.03h-.01c.05-.02.1 0 .14.03Z" fill="#D04F0B"/><path d="M7.14 12.77a1.1 1.1 0 0 1-.37-.2c.13.05.26.12.37.2Z" fill="#962626"/><path d="M7.2 13.17c.13 0 .22.02.26.04.1.08.2.13.34.16-.24-.03-.44-.1-.6-.2Z" fill="#B1511C"/><defs><linearGradient id="a" x1="17.14" y1="2.22" x2="3.16" y2="16.2" gradientUnits="userSpaceOnUse"><stop stop-color="#600908"/><stop offset=".27" stop-color="#841413"/><stop offset=".65" stop-color="#952524"/><stop offset="1" stop-color="#6A0608"/></linearGradient></defs></svg>