<!-- by TradingView --><svg width="18" height="18" viewBox="0 0 18 18" xmlns="http://www.w3.org/2000/svg"><path fill="#F0F3FA" d="M0 0h18v18H0z"/><path d="m9 3 .04.01 2.74 1.64a.07.07 0 0 1 .03.05v1.4a.03.03 0 0 1-.03.02h-.01L9.07 4.5a.14.14 0 0 0-.15 0L5.31 6.7a.13.13 0 0 0-.06.1v4.4c0 .02 0 .04.02.06 0 .02.02.03.04.04l3.62 2.2a.13.13 0 0 0 .14 0l3.64-2.2a.1.1 0 0 0 .03-.03.1.1 0 0 0 .01-.05v-6.6l.02-.01 1.18-.5a.04.04 0 0 1 .03 0 .04.04 0 0 1 .02.03V12l-.04.02L9.05 15a.1.1 0 0 1-.1 0l-4.91-2.95a.08.08 0 0 1-.04-.08V6l.03-.02L7.3 4l1.66-1L9 3Z" fill="url(#a)"/><path d="M9 5.68a.1.1 0 0 1 .05.02l.53.28a.1.1 0 0 1 .03.03l.01.05v4.43a.02.02 0 0 0 .02.01h.01l1.04-.53a.12.12 0 0 0 .04-.05.13.13 0 0 0 .02-.06V6.64a.04.04 0 0 1 .03-.02h.02l1.13.69c.02 0 .04.02.05.04l.02.07v3.2a.1.1 0 0 1-.02.05l-.02.03-2.91 1.6a.1.1 0 0 1-.1 0l-2.89-1.56a.11.11 0 0 1-.04-.04L6 10.65v-3.2l.02-.07a.12.12 0 0 1 .05-.04l1.14-.68a.03.03 0 0 1 .03 0l.01.02V9.9l.02.05c0 .02.02.03.04.04l1.02.5h.02a.03.03 0 0 0 .02-.01V6.04a.08.08 0 0 1 .04-.06l.54-.28A.1.1 0 0 1 9 5.68Z" fill="url(#b)"/><defs><linearGradient id="a" x1="12.95" y1="3.51" x2="3.66" y2="11.8" gradientUnits="userSpaceOnUse"><stop stop-color="#FE320A"/><stop offset="1" stop-color="#E43381"/></linearGradient><linearGradient id="b" x1="12.95" y1="3.51" x2="3.66" y2="11.8" gradientUnits="userSpaceOnUse"><stop stop-color="#FE320A"/><stop offset="1" stop-color="#E43381"/></linearGradient></defs></svg>