<!-- by TradingView --><svg width="18" height="18" xmlns="http://www.w3.org/2000/svg"><path fill="url(#paint0_linear)" d="M0 0h18v18H0z"/><path fill-rule="evenodd" d="M9 14A5 5 0 109 4a5 5 0 000 10zm0 1A6 6 0 109 3a6 6 0 000 12z" fill="#fff"/><path d="M11.625 7V5.803l-.75.98c.206.034.586.158.75.215z" fill="#7F7F7F"/><path d="M9.137 5c.728-.015 1.712.226 2.113.348l-.767 1.024c-2.236-.437-3.174.129-3.164.904.007.62.44.91.682.91h1.288l-.9 1.196c-.246-.01-2.463.13-2.387-2.106.076-2.236 2.226-2.255 3.135-2.275z" fill="#C4C4C4"/><path d="M8.863 13c-.728.015-1.712-.226-2.113-.348l.767-1.024c2.236.437 3.174-.129 3.164-.904-.007-.62-.44-.91-.682-.91H8.711l.9-1.196c.246.01 2.463-.13 2.387 2.106-.076 2.236-2.226 2.255-3.135 2.275z" fill="#7F7F7F"/><path d="M6.375 12.126v-1.143c.192.098.642.203.842.244l-.713.95-.129-.051z" fill="#C4C4C4"/><defs><linearGradient id="paint0_linear" x1="3.349" y1="3.122" x2="21.904" y2="24.434" gradientUnits="userSpaceOnUse"><stop stop-color="#1A1E21"/><stop offset="1" stop-color="#06060A"/></linearGradient></defs></svg>