<!-- by TradingView --><svg width="18" height="18" viewBox="0 0 18 18" xmlns="http://www.w3.org/2000/svg"><path fill="#F0F3FA" d="M0 0h18v18H0z"/><path fill-rule="evenodd" d="M9.3 3a5.9 5.9 0 0 1 3.02 1A5.95 5.95 0 0 1 15 8.7v.6a5.91 5.91 0 0 1-1.15 3.23A5.95 5.95 0 0 1 9.3 15h-.6a5.92 5.92 0 0 1-3.46-1.33A5.95 5.95 0 0 1 3 9.3v-.6A5.99 5.99 0 0 1 5.67 4 6 6 0 0 1 8.7 3h.6ZM14 9a4.95 4.95 0 0 1-3.09 4.62 4.95 4.95 0 0 1-5.45-1.08 4.96 4.96 0 0 1-1.08-5.45A4.96 4.96 0 0 1 9 4a4.95 4.95 0 0 1 4.62 3.09c.25.6.38 1.25.38 1.91ZM8.53 6.3l.25-1.02c0-.02.02-.03.04-.02l.6.15s.02.01.01.03l-.25 1v.01l.5.13s.02 0 .02-.02l.25-1c0-.01.02-.02.03-.01l.6.15c.02 0 .02.01.02.03l-.26 1.01c0 .02 0 .03.02.03.37.14.65.28.85.44.28.22.43.49.44.8 0 .28-.05.53-.18.74a.94.94 0 0 1-.6.44c-.04.01-.05.03 0 .06.17.08.32.2.45.37.15.19.21.42.19.7-.02.23-.09.47-.22.72-.26.5-.74.74-1.44.7a4.63 4.63 0 0 1-.73-.07l-.26 1.04-.04.02-.6-.16c-.01 0-.02 0-.01-.02l.25-1c0-.03 0-.04-.02-.05l-.46-.12c-.02 0-.03 0-.04.03l-.25 1c0 .02-.02.03-.03.02l-.6-.15c-.02 0-.02 0-.02-.02l.26-1.04c0-.01 0-.02-.02-.02l-1.26-.32c-.01 0-.02-.01-.01-.02l.3-.7c0-.02.02-.02.04-.02l.41.1c.11.03.2.02.26-.04.04-.04.07-.11.1-.22l.66-2.66a.56.56 0 0 0 .02-.29.33.33 0 0 0-.23-.21 4 4 0 0 0-.49-.12c-.02-.01-.03-.02-.03-.05l.16-.63c0-.02.02-.03.04-.02l1.25.31c.01 0 .03 0 .03-.02Zm.48.92L9 7.23 8.69 8.5v.01l.59.15c.25.06.48.06.7-.01.2-.07.32-.19.36-.35l.03-.12c.04-.16-.01-.32-.17-.48a1.22 1.22 0 0 0-.6-.33L9 7.22Zm-.48 1.95-.02.01-.34 1.4v.01l.7.18c.31.07.59.07.84 0 .24-.08.39-.2.43-.38l.03-.13c.05-.18-.02-.35-.2-.53-.2-.18-.44-.31-.74-.39l-.7-.17Z" fill="#0052FF"/></svg>