<!-- by TradingView --><svg width="18" height="18" viewBox="0 0 18 18" xmlns="http://www.w3.org/2000/svg"><path fill="url(#a)" d="M0 0h18v18H0z"/><path d="M12.06 12.45h.01a4.62 4.62 0 0 0 .31-5.09c-.08-.15-.33-.5-.74-1.03l-2.4-3.17c-.1-.13-.2-.2-.35-.14l-.1.1A3.73 3.73 0 0 0 7.63 5.2c-.15.63-.15 1.27.09 1.86.15.37.37.7.66.98.19.2.35.33.49.43.15.12.4.28.75.5a6.78 6.78 0 0 1 1.71 1.64 4.13 4.13 0 0 1 .73 1.83ZM6.22 6.52l-.34.45a4.62 4.62 0 0 0-.38 4.8c.25.5.6.95 1 1.29a3.77 3.77 0 0 0 4.27.49v-.02a3.1 3.1 0 0 0-.72-2.4A4.98 4.98 0 0 0 9 10.2l-.69-.45a5.3 5.3 0 0 1-1.19-1.1 4.08 4.08 0 0 1-.9-2.13Z" fill="url(#b)"/><defs><linearGradient id="a" x1="0" y1="7.81" x2="18" y2="7.81" gradientUnits="userSpaceOnUse"><stop stop-color="#F3D2FB"/><stop offset="1" stop-color="#ACC9FF"/></linearGradient><linearGradient id="b" x1="5" y1="5.14" x2="11.43" y2="12.2" gradientUnits="userSpaceOnUse"><stop stop-color="#F1AAF3"/><stop offset="1" stop-color="#7F9DF7"/></linearGradient></defs></svg>